<svg xmlns="http://www.w3.org/2000/svg" viewBox="0 0 43 39"><g fill-rule="nonzero" fill="none"><path d="M25.3 21.3C30 22.7 34 26.4 35 31.5c.5 2.4.1 5-.8 7.4h-4c.9-1.7 1.6-3.5 1.8-5.5.6-5-2.3-9.8-6.9-11.7l.2-.4" fill="#FFDA1B"/><path d="M38 38.9a13 13 0 0 0-2.5-13.3c-2.2-2.5-5.3-4-8.5-5v-.5c7 1.6 14 6 15.1 13.6a13 13 0 0 1-.2 5.2H38M23.7 22.3a9 9 0 0 1 3.2 2.7c2.5 3.6 2 7.4 1.3 9.8-.8 2.6-2.3 4-2.3 4h-5.3c3.5-2.2 5.6-5.8 5.9-10 0-2.1-1-4.8-3-6l.2-.5" fill="#003265"/><path d="M17 23.3c-1.2-4.9.1-10.2 4-13.6 1.8-1.6 4.3-2.6 6.8-3l2 3.6c-2 0-3.9.3-5.7 1-4.6 2-7.3 6.9-6.6 11.9H17" fill="#FFDA1B"/><path d="M25.9 3.5a13 13 0 0 0-10.2 8.6c-1.1 3.2-1 6.7-.1 9.9l-.5.2c-2-6.9-1.8-15 4.2-19.8 1.4-1.1 3-2 4.6-2.4l2 3.4M18.7 24.1c0-1.4.1-2.7.7-4 1.9-4.1 5.4-5.6 7.8-6.1 2.8-.6 4.8 0 4.8 0l2.6 4.5c-3.7-1.9-7.9-2-11.6 0a7 7 0 0 0-3.9 5.6h-.4M1.9 31.8a13 13 0 0 0 12.7 4.3c3.3-.7 6.2-2.6 8.5-5l.4.3c-4.7 5.3-11.9 9.3-19 6.6-1.7-.6-3.2-1.5-4.5-2.7l1.9-3.4" fill="#003265"/><path d="M23.3 27.3a9.5 9.5 0 0 1-3.9 1.5c-4.4.5-7.5-1.8-9.2-3.6-2-2-2.5-4-2.5-4l2.6-4.6c.3 4.1 2.4 7.7 6 10 1.8 1 4.7 1.5 6.7.4l.3.3" fill="#003265"/><path d="M23.4 29.4c-3.6 3.4-8.8 5-13.8 3.5-2.3-.8-4.4-2.4-6-4.4l2-3.5c1 1.6 2.3 3.2 3.9 4.3 4 3 9.5 2.8 13.5-.2l.4.3" fill="#FFDA1B"/></g></svg>